<mxfile host="app.diagrams.net" modified="2023-07-14T21:20:48.205Z" agent="Mozilla/5.0 (Windows NT 10.0; Win64; x64) AppleWebKit/537.36 (KHTML, like Gecko) Chrome/114.0.0.0 Safari/537.36" version="21.6.2" etag="GpL95d1eAd2qCt-owteA" type="github">
  <diagram name="Page-1" id="1IOZiHgla6m4dTyVtpX0">
    <mxGraphModel>
      <root>
        <mxCell id="0" />
        <mxCell id="1" parent="0" />
      </root>
    </mxGraphModel>
  </diagram>
</mxfile>
